<svg width="132" height="115" viewBox="0 0 132 115" fill="none" xmlns="http://www.w3.org/2000/svg">
<g opacity="0.3">
<mask id="mask0_63_23" style="mask-type:alpha" maskUnits="userSpaceOnUse" x="0" y="0" width="11" height="11">
<path d="M5.6319 10.425C8.5141 10.425 10.8506 8.09121 10.8506 5.21245C10.8506 2.33368 8.5141 0 5.6319 0C2.74969 0 0.413208 2.33368 0.413208 5.21245C0.413208 8.09121 2.74969 10.425 5.6319 10.425Z" fill="url(#paint0_linear_63_23)"/>
</mask>
<g mask="url(#mask0_63_23)">
<path d="M5.6319 10.425C8.5141 10.425 10.8506 8.09121 10.8506 5.21245C10.8506 2.33368 8.5141 0 5.6319 0C2.74969 0 0.413208 2.33368 0.413208 5.21245C0.413208 8.09121 2.74969 10.425 5.6319 10.425Z" fill="url(#paint1_linear_63_23)"/>
</g>
<mask id="mask1_63_23" style="mask-type:alpha" maskUnits="userSpaceOnUse" x="30" y="0" width="12" height="11">
<path d="M35.8568 10.425C38.739 10.425 41.0755 8.09121 41.0755 5.21245C41.0755 2.33368 38.739 0 35.8568 0C32.9746 0 30.6381 2.33368 30.6381 5.21245C30.6381 8.09121 32.9746 10.425 35.8568 10.425Z" fill="url(#paint2_linear_63_23)"/>
</mask>
<g mask="url(#mask1_63_23)">
<path d="M35.8568 10.425C38.739 10.425 41.0755 8.09121 41.0755 5.21245C41.0755 2.33368 38.739 0 35.8568 0C32.9746 0 30.6381 2.33368 30.6381 5.21245C30.6381 8.09121 32.9746 10.425 35.8568 10.425Z" fill="url(#paint3_linear_63_23)"/>
</g>
<mask id="mask2_63_23" style="mask-type:alpha" maskUnits="userSpaceOnUse" x="60" y="0" width="12" height="11">
<path d="M66.0819 10.425C68.9641 10.425 71.3006 8.09121 71.3006 5.21245C71.3006 2.33368 68.9641 0 66.0819 0C63.1997 0 60.8632 2.33368 60.8632 5.21245C60.8632 8.09121 63.1997 10.425 66.0819 10.425Z" fill="url(#paint4_linear_63_23)"/>
</mask>
<g mask="url(#mask2_63_23)">
<path d="M66.0819 10.425C68.9641 10.425 71.3006 8.09121 71.3006 5.21245C71.3006 2.33368 68.9641 0 66.0819 0C63.1997 0 60.8632 2.33368 60.8632 5.21245C60.8632 8.09121 63.1997 10.425 66.0819 10.425Z" fill="url(#paint5_linear_63_23)"/>
</g>
<mask id="mask3_63_23" style="mask-type:alpha" maskUnits="userSpaceOnUse" x="91" y="0" width="11" height="11">
<path d="M96.3068 10.425C99.1891 10.425 101.526 8.09121 101.526 5.21245C101.526 2.33368 99.1891 0 96.3068 0C93.4246 0 91.0881 2.33368 91.0881 5.21245C91.0881 8.09121 93.4246 10.425 96.3068 10.425Z" fill="url(#paint6_linear_63_23)"/>
</mask>
<g mask="url(#mask3_63_23)">
<path d="M96.3068 10.425C99.1891 10.425 101.526 8.09121 101.526 5.21245C101.526 2.33368 99.1891 0 96.3068 0C93.4246 0 91.0881 2.33368 91.0881 5.21245C91.0881 8.09121 93.4246 10.425 96.3068 10.425Z" fill="url(#paint7_linear_63_23)"/>
</g>
<mask id="mask4_63_23" style="mask-type:alpha" maskUnits="userSpaceOnUse" x="121" y="0" width="11" height="11">
<path d="M126.532 10.425C129.414 10.425 131.75 8.09121 131.75 5.21245C131.75 2.33368 129.414 0 126.532 0C123.649 0 121.313 2.33368 121.313 5.21245C121.313 8.09121 123.649 10.425 126.532 10.425Z" fill="url(#paint8_linear_63_23)"/>
</mask>
<g mask="url(#mask4_63_23)">
<path d="M126.532 10.425C129.414 10.425 131.75 8.09121 131.75 5.21245C131.75 2.33368 129.414 0 126.532 0C123.649 0 121.313 2.33368 121.313 5.21245C121.313 8.09121 123.649 10.425 126.532 10.425Z" fill="url(#paint9_linear_63_23)"/>
</g>
<mask id="mask5_63_23" style="mask-type:alpha" maskUnits="userSpaceOnUse" x="0" y="26" width="11" height="11">
<path d="M5.6319 36.5958C8.5141 36.5958 10.8506 34.2621 10.8506 31.3833C10.8506 28.5046 8.5141 26.1709 5.6319 26.1709C2.74969 26.1709 0.413208 28.5046 0.413208 31.3833C0.413208 34.2621 2.74969 36.5958 5.6319 36.5958Z" fill="url(#paint10_linear_63_23)"/>
</mask>
<g mask="url(#mask5_63_23)">
<path d="M5.6319 36.5958C8.5141 36.5958 10.8506 34.2621 10.8506 31.3833C10.8506 28.5046 8.5141 26.1709 5.6319 26.1709C2.74969 26.1709 0.413208 28.5046 0.413208 31.3833C0.413208 34.2621 2.74969 36.5958 5.6319 36.5958Z" fill="url(#paint11_linear_63_23)"/>
</g>
<mask id="mask6_63_23" style="mask-type:alpha" maskUnits="userSpaceOnUse" x="30" y="26" width="12" height="11">
<path d="M35.8568 36.5958C38.739 36.5958 41.0755 34.2621 41.0755 31.3833C41.0755 28.5046 38.739 26.1709 35.8568 26.1709C32.9746 26.1709 30.6381 28.5046 30.6381 31.3833C30.6381 34.2621 32.9746 36.5958 35.8568 36.5958Z" fill="url(#paint12_linear_63_23)"/>
</mask>
<g mask="url(#mask6_63_23)">
<path d="M35.8568 36.5958C38.739 36.5958 41.0755 34.2621 41.0755 31.3833C41.0755 28.5046 38.739 26.1709 35.8568 26.1709C32.9746 26.1709 30.6381 28.5046 30.6381 31.3833C30.6381 34.2621 32.9746 36.5958 35.8568 36.5958Z" fill="url(#paint13_linear_63_23)"/>
</g>
<mask id="mask7_63_23" style="mask-type:alpha" maskUnits="userSpaceOnUse" x="60" y="26" width="12" height="11">
<path d="M66.0819 36.5958C68.9641 36.5958 71.3006 34.2621 71.3006 31.3833C71.3006 28.5046 68.9641 26.1709 66.0819 26.1709C63.1997 26.1709 60.8632 28.5046 60.8632 31.3833C60.8632 34.2621 63.1997 36.5958 66.0819 36.5958Z" fill="url(#paint14_linear_63_23)"/>
</mask>
<g mask="url(#mask7_63_23)">
<path d="M66.0819 36.5958C68.9641 36.5958 71.3006 34.2621 71.3006 31.3833C71.3006 28.5046 68.9641 26.1709 66.0819 26.1709C63.1997 26.1709 60.8632 28.5046 60.8632 31.3833C60.8632 34.2621 63.1997 36.5958 66.0819 36.5958Z" fill="url(#paint15_linear_63_23)"/>
</g>
<mask id="mask8_63_23" style="mask-type:alpha" maskUnits="userSpaceOnUse" x="91" y="26" width="11" height="11">
<path d="M96.3068 36.5958C99.1891 36.5958 101.526 34.2621 101.526 31.3833C101.526 28.5046 99.1891 26.1709 96.3068 26.1709C93.4246 26.1709 91.0881 28.5046 91.0881 31.3833C91.0881 34.2621 93.4246 36.5958 96.3068 36.5958Z" fill="url(#paint16_linear_63_23)"/>
</mask>
<g mask="url(#mask8_63_23)">
<path d="M96.3068 36.5958C99.1891 36.5958 101.526 34.2621 101.526 31.3833C101.526 28.5046 99.1891 26.1709 96.3068 26.1709C93.4246 26.1709 91.0881 28.5046 91.0881 31.3833C91.0881 34.2621 93.4246 36.5958 96.3068 36.5958Z" fill="url(#paint17_linear_63_23)"/>
</g>
<mask id="mask9_63_23" style="mask-type:alpha" maskUnits="userSpaceOnUse" x="121" y="26" width="11" height="11">
<path d="M126.532 36.5958C129.414 36.5958 131.75 34.2621 131.75 31.3833C131.75 28.5046 129.414 26.1709 126.532 26.1709C123.649 26.1709 121.313 28.5046 121.313 31.3833C121.313 34.2621 123.649 36.5958 126.532 36.5958Z" fill="url(#paint18_linear_63_23)"/>
</mask>
<g mask="url(#mask9_63_23)">
<path d="M126.532 36.5958C129.414 36.5958 131.75 34.2621 131.75 31.3833C131.75 28.5046 129.414 26.1709 126.532 26.1709C123.649 26.1709 121.313 28.5046 121.313 31.3833C121.313 34.2621 123.649 36.5958 126.532 36.5958Z" fill="url(#paint19_linear_63_23)"/>
</g>
<mask id="mask10_63_23" style="mask-type:alpha" maskUnits="userSpaceOnUse" x="0" y="52" width="11" height="11">
<path d="M5.6319 62.7126C8.5141 62.7126 10.8506 60.3789 10.8506 57.5001C10.8506 54.6213 8.5141 52.2876 5.6319 52.2876C2.74969 52.2876 0.413208 54.6213 0.413208 57.5001C0.413208 60.3789 2.74969 62.7126 5.6319 62.7126Z" fill="url(#paint20_linear_63_23)"/>
</mask>
<g mask="url(#mask10_63_23)">
<path d="M5.6319 62.7126C8.5141 62.7126 10.8506 60.3789 10.8506 57.5001C10.8506 54.6213 8.5141 52.2876 5.6319 52.2876C2.74969 52.2876 0.413208 54.6213 0.413208 57.5001C0.413208 60.3789 2.74969 62.7126 5.6319 62.7126Z" fill="url(#paint21_linear_63_23)"/>
</g>
<mask id="mask11_63_23" style="mask-type:alpha" maskUnits="userSpaceOnUse" x="30" y="52" width="12" height="11">
<path d="M35.8568 62.7126C38.739 62.7126 41.0755 60.3789 41.0755 57.5001C41.0755 54.6213 38.739 52.2876 35.8568 52.2876C32.9746 52.2876 30.6381 54.6213 30.6381 57.5001C30.6381 60.3789 32.9746 62.7126 35.8568 62.7126Z" fill="url(#paint22_linear_63_23)"/>
</mask>
<g mask="url(#mask11_63_23)">
<path d="M35.8568 62.7126C38.739 62.7126 41.0755 60.3789 41.0755 57.5001C41.0755 54.6213 38.739 52.2876 35.8568 52.2876C32.9746 52.2876 30.6381 54.6213 30.6381 57.5001C30.6381 60.3789 32.9746 62.7126 35.8568 62.7126Z" fill="url(#paint23_linear_63_23)"/>
</g>
<mask id="mask12_63_23" style="mask-type:alpha" maskUnits="userSpaceOnUse" x="60" y="52" width="12" height="11">
<path d="M66.0819 62.7126C68.9641 62.7126 71.3006 60.3789 71.3006 57.5001C71.3006 54.6213 68.9641 52.2876 66.0819 52.2876C63.1997 52.2876 60.8632 54.6213 60.8632 57.5001C60.8632 60.3789 63.1997 62.7126 66.0819 62.7126Z" fill="url(#paint24_linear_63_23)"/>
</mask>
<g mask="url(#mask12_63_23)">
<path d="M66.0819 62.7126C68.9641 62.7126 71.3006 60.3789 71.3006 57.5001C71.3006 54.6213 68.9641 52.2876 66.0819 52.2876C63.1997 52.2876 60.8632 54.6213 60.8632 57.5001C60.8632 60.3789 63.1997 62.7126 66.0819 62.7126Z" fill="url(#paint25_linear_63_23)"/>
</g>
<mask id="mask13_63_23" style="mask-type:alpha" maskUnits="userSpaceOnUse" x="91" y="52" width="11" height="11">
<path d="M96.3068 62.7126C99.1891 62.7126 101.526 60.3789 101.526 57.5001C101.526 54.6213 99.1891 52.2876 96.3068 52.2876C93.4246 52.2876 91.0881 54.6213 91.0881 57.5001C91.0881 60.3789 93.4246 62.7126 96.3068 62.7126Z" fill="url(#paint26_linear_63_23)"/>
</mask>
<g mask="url(#mask13_63_23)">
<path d="M96.3068 62.7126C99.1891 62.7126 101.526 60.3789 101.526 57.5001C101.526 54.6213 99.1891 52.2876 96.3068 52.2876C93.4246 52.2876 91.0881 54.6213 91.0881 57.5001C91.0881 60.3789 93.4246 62.7126 96.3068 62.7126Z" fill="url(#paint27_linear_63_23)"/>
</g>
<mask id="mask14_63_23" style="mask-type:alpha" maskUnits="userSpaceOnUse" x="121" y="52" width="11" height="11">
<path d="M126.532 62.7126C129.414 62.7126 131.75 60.3789 131.75 57.5001C131.75 54.6213 129.414 52.2876 126.532 52.2876C123.649 52.2876 121.313 54.6213 121.313 57.5001C121.313 60.3789 123.649 62.7126 126.532 62.7126Z" fill="url(#paint28_linear_63_23)"/>
</mask>
<g mask="url(#mask14_63_23)">
<path d="M126.532 62.7126C129.414 62.7126 131.75 60.3789 131.75 57.5001C131.75 54.6213 129.414 52.2876 126.532 52.2876C123.649 52.2876 121.313 54.6213 121.313 57.5001C121.313 60.3789 123.649 62.7126 126.532 62.7126Z" fill="url(#paint29_linear_63_23)"/>
</g>
<mask id="mask15_63_23" style="mask-type:alpha" maskUnits="userSpaceOnUse" x="0" y="78" width="11" height="11">
<path d="M5.6319 88.8835C8.5141 88.8835 10.8506 86.5497 10.8506 83.6709C10.8506 80.7922 8.5141 78.4585 5.6319 78.4585C2.74969 78.4585 0.413208 80.7922 0.413208 83.6709C0.413208 86.5497 2.74969 88.8835 5.6319 88.8835Z" fill="url(#paint30_linear_63_23)"/>
</mask>
<g mask="url(#mask15_63_23)">
<path d="M5.6319 88.8835C8.5141 88.8835 10.8506 86.5497 10.8506 83.6709C10.8506 80.7922 8.5141 78.4585 5.6319 78.4585C2.74969 78.4585 0.413208 80.7922 0.413208 83.6709C0.413208 86.5497 2.74969 88.8835 5.6319 88.8835Z" fill="url(#paint31_linear_63_23)"/>
</g>
<mask id="mask16_63_23" style="mask-type:alpha" maskUnits="userSpaceOnUse" x="30" y="78" width="12" height="11">
<path d="M35.8568 88.8835C38.739 88.8835 41.0755 86.5497 41.0755 83.6709C41.0755 80.7922 38.739 78.4585 35.8568 78.4585C32.9746 78.4585 30.6381 80.7922 30.6381 83.6709C30.6381 86.5497 32.9746 88.8835 35.8568 88.8835Z" fill="url(#paint32_linear_63_23)"/>
</mask>
<g mask="url(#mask16_63_23)">
<path d="M35.8568 88.8835C38.739 88.8835 41.0755 86.5497 41.0755 83.6709C41.0755 80.7922 38.739 78.4585 35.8568 78.4585C32.9746 78.4585 30.6381 80.7922 30.6381 83.6709C30.6381 86.5497 32.9746 88.8835 35.8568 88.8835Z" fill="url(#paint33_linear_63_23)"/>
</g>
<mask id="mask17_63_23" style="mask-type:alpha" maskUnits="userSpaceOnUse" x="60" y="78" width="12" height="11">
<path d="M66.0819 88.8835C68.9641 88.8835 71.3006 86.5497 71.3006 83.6709C71.3006 80.7922 68.9641 78.4585 66.0819 78.4585C63.1997 78.4585 60.8632 80.7922 60.8632 83.6709C60.8632 86.5497 63.1997 88.8835 66.0819 88.8835Z" fill="url(#paint34_linear_63_23)"/>
</mask>
<g mask="url(#mask17_63_23)">
<path d="M66.0819 88.8835C68.9641 88.8835 71.3006 86.5497 71.3006 83.6709C71.3006 80.7922 68.9641 78.4585 66.0819 78.4585C63.1997 78.4585 60.8632 80.7922 60.8632 83.6709C60.8632 86.5497 63.1997 88.8835 66.0819 88.8835Z" fill="url(#paint35_linear_63_23)"/>
</g>
<mask id="mask18_63_23" style="mask-type:alpha" maskUnits="userSpaceOnUse" x="91" y="78" width="11" height="11">
<path d="M96.3068 88.8835C99.1891 88.8835 101.526 86.5497 101.526 83.6709C101.526 80.7922 99.1891 78.4585 96.3068 78.4585C93.4246 78.4585 91.0881 80.7922 91.0881 83.6709C91.0881 86.5497 93.4246 88.8835 96.3068 88.8835Z" fill="url(#paint36_linear_63_23)"/>
</mask>
<g mask="url(#mask18_63_23)">
<path d="M96.3068 88.8835C99.1891 88.8835 101.526 86.5497 101.526 83.6709C101.526 80.7922 99.1891 78.4585 96.3068 78.4585C93.4246 78.4585 91.0881 80.7922 91.0881 83.6709C91.0881 86.5497 93.4246 88.8835 96.3068 88.8835Z" fill="url(#paint37_linear_63_23)"/>
</g>
<mask id="mask19_63_23" style="mask-type:alpha" maskUnits="userSpaceOnUse" x="121" y="78" width="11" height="11">
<path d="M126.532 88.8835C129.414 88.8835 131.75 86.5497 131.75 83.6709C131.75 80.7922 129.414 78.4585 126.532 78.4585C123.649 78.4585 121.313 80.7922 121.313 83.6709C121.313 86.5497 123.649 88.8835 126.532 88.8835Z" fill="url(#paint38_linear_63_23)"/>
</mask>
<g mask="url(#mask19_63_23)">
<path d="M126.532 88.8835C129.414 88.8835 131.75 86.5497 131.75 83.6709C131.75 80.7922 129.414 78.4585 126.532 78.4585C123.649 78.4585 121.313 80.7922 121.313 83.6709C121.313 86.5497 123.649 88.8835 126.532 88.8835Z" fill="url(#paint39_linear_63_23)"/>
</g>
<mask id="mask20_63_23" style="mask-type:alpha" maskUnits="userSpaceOnUse" x="0" y="104" width="11" height="11">
<path d="M5.6319 115C8.5141 115 10.8506 112.666 10.8506 109.788C10.8506 106.909 8.5141 104.575 5.6319 104.575C2.74969 104.575 0.413208 106.909 0.413208 109.788C0.413208 112.666 2.74969 115 5.6319 115Z" fill="url(#paint40_linear_63_23)"/>
</mask>
<g mask="url(#mask20_63_23)">
<path d="M5.6319 115C8.5141 115 10.8506 112.666 10.8506 109.788C10.8506 106.909 8.5141 104.575 5.6319 104.575C2.74969 104.575 0.413208 106.909 0.413208 109.788C0.413208 112.666 2.74969 115 5.6319 115Z" fill="url(#paint41_linear_63_23)"/>
</g>
<mask id="mask21_63_23" style="mask-type:alpha" maskUnits="userSpaceOnUse" x="30" y="104" width="12" height="11">
<path d="M35.8568 115C38.739 115 41.0755 112.666 41.0755 109.788C41.0755 106.909 38.739 104.575 35.8568 104.575C32.9746 104.575 30.6381 106.909 30.6381 109.788C30.6381 112.666 32.9746 115 35.8568 115Z" fill="url(#paint42_linear_63_23)"/>
</mask>
<g mask="url(#mask21_63_23)">
<path d="M35.8568 115C38.739 115 41.0755 112.666 41.0755 109.788C41.0755 106.909 38.739 104.575 35.8568 104.575C32.9746 104.575 30.6381 106.909 30.6381 109.788C30.6381 112.666 32.9746 115 35.8568 115Z" fill="url(#paint43_linear_63_23)"/>
</g>
<mask id="mask22_63_23" style="mask-type:alpha" maskUnits="userSpaceOnUse" x="60" y="104" width="12" height="11">
<path d="M66.0819 115C68.9641 115 71.3006 112.666 71.3006 109.788C71.3006 106.909 68.9641 104.575 66.0819 104.575C63.1997 104.575 60.8632 106.909 60.8632 109.788C60.8632 112.666 63.1997 115 66.0819 115Z" fill="url(#paint44_linear_63_23)"/>
</mask>
<g mask="url(#mask22_63_23)">
<path d="M66.0819 115C68.9641 115 71.3006 112.666 71.3006 109.788C71.3006 106.909 68.9641 104.575 66.0819 104.575C63.1997 104.575 60.8632 106.909 60.8632 109.788C60.8632 112.666 63.1997 115 66.0819 115Z" fill="url(#paint45_linear_63_23)"/>
</g>
<mask id="mask23_63_23" style="mask-type:alpha" maskUnits="userSpaceOnUse" x="91" y="104" width="11" height="11">
<path d="M96.3068 115C99.1891 115 101.526 112.666 101.526 109.788C101.526 106.909 99.1891 104.575 96.3068 104.575C93.4246 104.575 91.0881 106.909 91.0881 109.788C91.0881 112.666 93.4246 115 96.3068 115Z" fill="url(#paint46_linear_63_23)"/>
</mask>
<g mask="url(#mask23_63_23)">
<path d="M96.3068 115C99.1891 115 101.526 112.666 101.526 109.788C101.526 106.909 99.1891 104.575 96.3068 104.575C93.4246 104.575 91.0881 106.909 91.0881 109.788C91.0881 112.666 93.4246 115 96.3068 115Z" fill="url(#paint47_linear_63_23)"/>
</g>
<mask id="mask24_63_23" style="mask-type:alpha" maskUnits="userSpaceOnUse" x="121" y="104" width="11" height="11">
<path d="M126.532 115C129.414 115 131.75 112.666 131.75 109.788C131.75 106.909 129.414 104.575 126.532 104.575C123.649 104.575 121.313 106.909 121.313 109.788C121.313 112.666 123.649 115 126.532 115Z" fill="url(#paint48_linear_63_23)"/>
</mask>
<g mask="url(#mask24_63_23)">
<path d="M126.532 115C129.414 115 131.75 112.666 131.75 109.788C131.75 106.909 129.414 104.575 126.532 104.575C123.649 104.575 121.313 106.909 121.313 109.788C121.313 112.666 123.649 115 126.532 115Z" fill="url(#paint49_linear_63_23)"/>
</g>
</g>
<defs>
<linearGradient id="paint0_linear_63_23" x1="55.3073" y1="131.134" x2="-16.1914" y2="-50.5797" gradientUnits="userSpaceOnUse">
<stop/>
<stop offset="1" stop-color="white"/>
</linearGradient>
<linearGradient id="paint1_linear_63_23" x1="55.3073" y1="131.134" x2="-16.1914" y2="-50.5797" gradientUnits="userSpaceOnUse">
<stop stop-color="#97C3F9"/>
<stop offset="1" stop-color="#93C1F9"/>
</linearGradient>
<linearGradient id="paint2_linear_63_23" x1="81.4632" y1="120.843" x2="9.96454" y2="-60.871" gradientUnits="userSpaceOnUse">
<stop/>
<stop offset="1" stop-color="white"/>
</linearGradient>
<linearGradient id="paint3_linear_63_23" x1="81.4632" y1="120.843" x2="9.96454" y2="-60.871" gradientUnits="userSpaceOnUse">
<stop stop-color="#97C3F9"/>
<stop offset="1" stop-color="#93C1F9"/>
</linearGradient>
<linearGradient id="paint4_linear_63_23" x1="107.619" y1="110.551" x2="36.1205" y2="-71.1623" gradientUnits="userSpaceOnUse">
<stop/>
<stop offset="1" stop-color="white"/>
</linearGradient>
<linearGradient id="paint5_linear_63_23" x1="107.619" y1="110.551" x2="36.1205" y2="-71.1623" gradientUnits="userSpaceOnUse">
<stop stop-color="#97C3F9"/>
<stop offset="1" stop-color="#93C1F9"/>
</linearGradient>
<linearGradient id="paint6_linear_63_23" x1="133.775" y1="100.259" x2="62.2762" y2="-81.4542" gradientUnits="userSpaceOnUse">
<stop/>
<stop offset="1" stop-color="white"/>
</linearGradient>
<linearGradient id="paint7_linear_63_23" x1="133.775" y1="100.259" x2="62.2762" y2="-81.4542" gradientUnits="userSpaceOnUse">
<stop stop-color="#97C3F9"/>
<stop offset="1" stop-color="#93C1F9"/>
</linearGradient>
<linearGradient id="paint8_linear_63_23" x1="159.931" y1="89.9679" x2="88.4318" y2="-91.7457" gradientUnits="userSpaceOnUse">
<stop/>
<stop offset="1" stop-color="white"/>
</linearGradient>
<linearGradient id="paint9_linear_63_23" x1="159.931" y1="89.9679" x2="88.4318" y2="-91.7457" gradientUnits="userSpaceOnUse">
<stop stop-color="#97C3F9"/>
<stop offset="1" stop-color="#93C1F9"/>
</linearGradient>
<linearGradient id="paint10_linear_63_23" x1="46.3817" y1="134.645" x2="-25.1158" y2="-47.0669" gradientUnits="userSpaceOnUse">
<stop/>
<stop offset="1" stop-color="white"/>
</linearGradient>
<linearGradient id="paint11_linear_63_23" x1="46.3817" y1="134.645" x2="-25.1158" y2="-47.0669" gradientUnits="userSpaceOnUse">
<stop stop-color="#97C3F9"/>
<stop offset="1" stop-color="#93C1F9"/>
</linearGradient>
<linearGradient id="paint12_linear_63_23" x1="72.5374" y1="124.354" x2="1.03994" y2="-57.3588" gradientUnits="userSpaceOnUse">
<stop/>
<stop offset="1" stop-color="white"/>
</linearGradient>
<linearGradient id="paint13_linear_63_23" x1="72.5374" y1="124.354" x2="1.03994" y2="-57.3588" gradientUnits="userSpaceOnUse">
<stop stop-color="#97C3F9"/>
<stop offset="1" stop-color="#93C1F9"/>
</linearGradient>
<linearGradient id="paint14_linear_63_23" x1="98.6932" y1="114.062" x2="27.1958" y2="-67.6502" gradientUnits="userSpaceOnUse">
<stop/>
<stop offset="1" stop-color="white"/>
</linearGradient>
<linearGradient id="paint15_linear_63_23" x1="98.6932" y1="114.062" x2="27.1958" y2="-67.6502" gradientUnits="userSpaceOnUse">
<stop stop-color="#97C3F9"/>
<stop offset="1" stop-color="#93C1F9"/>
</linearGradient>
<linearGradient id="paint16_linear_63_23" x1="124.849" y1="103.771" x2="53.3516" y2="-77.9416" gradientUnits="userSpaceOnUse">
<stop/>
<stop offset="1" stop-color="white"/>
</linearGradient>
<linearGradient id="paint17_linear_63_23" x1="124.849" y1="103.771" x2="53.3516" y2="-77.9416" gradientUnits="userSpaceOnUse">
<stop stop-color="#97C3F9"/>
<stop offset="1" stop-color="#93C1F9"/>
</linearGradient>
<linearGradient id="paint18_linear_63_23" x1="151.005" y1="93.4793" x2="79.5073" y2="-88.2329" gradientUnits="userSpaceOnUse">
<stop/>
<stop offset="1" stop-color="white"/>
</linearGradient>
<linearGradient id="paint19_linear_63_23" x1="151.005" y1="93.4793" x2="79.5073" y2="-88.2329" gradientUnits="userSpaceOnUse">
<stop stop-color="#97C3F9"/>
<stop offset="1" stop-color="#93C1F9"/>
</linearGradient>
<linearGradient id="paint20_linear_63_23" x1="37.4558" y1="138.158" x2="-34.043" y2="-43.5555" gradientUnits="userSpaceOnUse">
<stop/>
<stop offset="1" stop-color="white"/>
</linearGradient>
<linearGradient id="paint21_linear_63_23" x1="37.4558" y1="138.158" x2="-34.043" y2="-43.5555" gradientUnits="userSpaceOnUse">
<stop stop-color="#97C3F9"/>
<stop offset="1" stop-color="#93C1F9"/>
</linearGradient>
<linearGradient id="paint22_linear_63_23" x1="63.6116" y1="127.867" x2="-7.88711" y2="-53.8471" gradientUnits="userSpaceOnUse">
<stop/>
<stop offset="1" stop-color="white"/>
</linearGradient>
<linearGradient id="paint23_linear_63_23" x1="63.6116" y1="127.867" x2="-7.88711" y2="-53.8471" gradientUnits="userSpaceOnUse">
<stop stop-color="#97C3F9"/>
<stop offset="1" stop-color="#93C1F9"/>
</linearGradient>
<linearGradient id="paint24_linear_63_23" x1="89.7674" y1="117.575" x2="18.2688" y2="-64.1385" gradientUnits="userSpaceOnUse">
<stop/>
<stop offset="1" stop-color="white"/>
</linearGradient>
<linearGradient id="paint25_linear_63_23" x1="89.7674" y1="117.575" x2="18.2688" y2="-64.1385" gradientUnits="userSpaceOnUse">
<stop stop-color="#97C3F9"/>
<stop offset="1" stop-color="#93C1F9"/>
</linearGradient>
<linearGradient id="paint26_linear_63_23" x1="115.923" y1="107.283" x2="44.4245" y2="-74.4301" gradientUnits="userSpaceOnUse">
<stop/>
<stop offset="1" stop-color="white"/>
</linearGradient>
<linearGradient id="paint27_linear_63_23" x1="115.923" y1="107.283" x2="44.4245" y2="-74.4301" gradientUnits="userSpaceOnUse">
<stop stop-color="#97C3F9"/>
<stop offset="1" stop-color="#93C1F9"/>
</linearGradient>
<linearGradient id="paint28_linear_63_23" x1="142.079" y1="96.992" x2="70.5802" y2="-84.7216" gradientUnits="userSpaceOnUse">
<stop/>
<stop offset="1" stop-color="white"/>
</linearGradient>
<linearGradient id="paint29_linear_63_23" x1="142.079" y1="96.992" x2="70.5802" y2="-84.7216" gradientUnits="userSpaceOnUse">
<stop stop-color="#97C3F9"/>
<stop offset="1" stop-color="#93C1F9"/>
</linearGradient>
<linearGradient id="paint30_linear_63_23" x1="28.53" y1="141.67" x2="-42.9688" y2="-40.0435" gradientUnits="userSpaceOnUse">
<stop/>
<stop offset="1" stop-color="white"/>
</linearGradient>
<linearGradient id="paint31_linear_63_23" x1="28.53" y1="141.67" x2="-42.9688" y2="-40.0435" gradientUnits="userSpaceOnUse">
<stop stop-color="#97C3F9"/>
<stop offset="1" stop-color="#93C1F9"/>
</linearGradient>
<linearGradient id="paint32_linear_63_23" x1="54.6858" y1="131.379" x2="-16.8129" y2="-50.335" gradientUnits="userSpaceOnUse">
<stop/>
<stop offset="1" stop-color="white"/>
</linearGradient>
<linearGradient id="paint33_linear_63_23" x1="54.6858" y1="131.379" x2="-16.8129" y2="-50.335" gradientUnits="userSpaceOnUse">
<stop stop-color="#97C3F9"/>
<stop offset="1" stop-color="#93C1F9"/>
</linearGradient>
<linearGradient id="paint34_linear_63_23" x1="80.8416" y1="121.087" x2="9.34298" y2="-60.6265" gradientUnits="userSpaceOnUse">
<stop/>
<stop offset="1" stop-color="white"/>
</linearGradient>
<linearGradient id="paint35_linear_63_23" x1="80.8416" y1="121.087" x2="9.34298" y2="-60.6265" gradientUnits="userSpaceOnUse">
<stop stop-color="#97C3F9"/>
<stop offset="1" stop-color="#93C1F9"/>
</linearGradient>
<linearGradient id="paint36_linear_63_23" x1="106.997" y1="110.796" x2="35.4987" y2="-70.9181" gradientUnits="userSpaceOnUse">
<stop/>
<stop offset="1" stop-color="white"/>
</linearGradient>
<linearGradient id="paint37_linear_63_23" x1="106.997" y1="110.796" x2="35.4987" y2="-70.9181" gradientUnits="userSpaceOnUse">
<stop stop-color="#97C3F9"/>
<stop offset="1" stop-color="#93C1F9"/>
</linearGradient>
<linearGradient id="paint38_linear_63_23" x1="133.153" y1="100.504" x2="61.6544" y2="-81.2096" gradientUnits="userSpaceOnUse">
<stop/>
<stop offset="1" stop-color="white"/>
</linearGradient>
<linearGradient id="paint39_linear_63_23" x1="133.153" y1="100.504" x2="61.6544" y2="-81.2096" gradientUnits="userSpaceOnUse">
<stop stop-color="#97C3F9"/>
<stop offset="1" stop-color="#93C1F9"/>
</linearGradient>
<linearGradient id="paint40_linear_63_23" x1="19.6041" y1="145.182" x2="-51.8945" y2="-36.5315" gradientUnits="userSpaceOnUse">
<stop/>
<stop offset="1" stop-color="white"/>
</linearGradient>
<linearGradient id="paint41_linear_63_23" x1="19.6041" y1="145.182" x2="-51.8945" y2="-36.5315" gradientUnits="userSpaceOnUse">
<stop stop-color="#97C3F9"/>
<stop offset="1" stop-color="#93C1F9"/>
</linearGradient>
<linearGradient id="paint42_linear_63_23" x1="45.76" y1="134.891" x2="-25.7387" y2="-46.823" gradientUnits="userSpaceOnUse">
<stop/>
<stop offset="1" stop-color="white"/>
</linearGradient>
<linearGradient id="paint43_linear_63_23" x1="45.76" y1="134.891" x2="-25.7387" y2="-46.823" gradientUnits="userSpaceOnUse">
<stop stop-color="#97C3F9"/>
<stop offset="1" stop-color="#93C1F9"/>
</linearGradient>
<linearGradient id="paint44_linear_63_23" x1="71.9158" y1="124.599" x2="0.417209" y2="-57.1143" gradientUnits="userSpaceOnUse">
<stop/>
<stop offset="1" stop-color="white"/>
</linearGradient>
<linearGradient id="paint45_linear_63_23" x1="71.9158" y1="124.599" x2="0.417209" y2="-57.1143" gradientUnits="userSpaceOnUse">
<stop stop-color="#97C3F9"/>
<stop offset="1" stop-color="#93C1F9"/>
</linearGradient>
<linearGradient id="paint46_linear_63_23" x1="98.0716" y1="114.308" x2="26.573" y2="-67.406" gradientUnits="userSpaceOnUse">
<stop/>
<stop offset="1" stop-color="white"/>
</linearGradient>
<linearGradient id="paint47_linear_63_23" x1="98.0716" y1="114.308" x2="26.573" y2="-67.406" gradientUnits="userSpaceOnUse">
<stop stop-color="#97C3F9"/>
<stop offset="1" stop-color="#93C1F9"/>
</linearGradient>
<linearGradient id="paint48_linear_63_23" x1="124.227" y1="104.016" x2="52.7286" y2="-77.6975" gradientUnits="userSpaceOnUse">
<stop/>
<stop offset="1" stop-color="white"/>
</linearGradient>
<linearGradient id="paint49_linear_63_23" x1="124.227" y1="104.016" x2="52.7286" y2="-77.6975" gradientUnits="userSpaceOnUse">
<stop stop-color="#97C3F9"/>
<stop offset="1" stop-color="#93C1F9"/>
</linearGradient>
</defs>
</svg>
